# xmcd
#
# Track frame offsets: 
#        150
#        14362
#        36262
#        53231
#        66178
#        97692
#        115034
#        132330
#        154591
#        172429
#        188727
#
# Disc length: 3021 seconds
#
# Revision: 0
# Processed by: cddbd v1.5.2PL0 Copyright (c) Steve Scherf et al.
# Submitted via: ExactAudioCopy v0.99pb5
#
DISCID=8f0bcb0b
DTITLE=Snowy White - White Flames
DYEAR=1983
DGENRE=Blues
TTITLE0=Open Carefully
TTITLE1=At the Crossroads
TTITLE2=The Journey (Part One)
TTITLE3=The Journey (Part Two)
TTITLE4=Lucky Star
TTITLE5=It's no Secret
TTITLE6=Don't turn back
TTITLE7=Bird of Paradise
TTITLE8=Lucky I've got You
TTITLE9=The Answer
TTITLE10=For the rest of my Life
EXTD=
EXTT0=
EXTT1=
EXTT2=
EXTT3=
EXTT4=
EXTT5=
EXTT6=
EXTT7=
EXTT8=
EXTT9=
EXTT10=
PLAYORDER=
